<svg width="556" height="498" viewBox="0 0 556 498" fill="none" xmlns="http://www.w3.org/2000/svg">
    <rect x="40.5" y="387.5" width="175" height="59" rx="9.5" stroke="white"/>
    <path d="M55.3579 429H52.6699V406.6H55.3579V416.52H56.0939L64.7019 406.6H68.0299V406.792L58.7499 417.608V417.992L68.4139 428.808V429H65.0219L56.0939 419.016H55.3579V429ZM87.2076 423.432H77.6076L75.9756 429H73.0956L79.8796 406.6H84.9356L91.7196 429H88.8396L87.2076 423.432ZM82.2156 407.752L78.3436 420.936H86.4716L82.5996 407.752H82.2156ZM98.1934 406.6H100.881V426.504H112.593V429H98.1934V406.6ZM120.123 406.6H135.867V409.096H129.339V429H126.651V409.096H120.123V406.6ZM145.797 406.6V421.448C145.797 423.261 146.213 424.637 147.045 425.576C147.898 426.493 149.146 426.952 150.789 426.952C152.432 426.952 153.669 426.493 154.501 425.576C155.354 424.637 155.781 423.261 155.781 421.448V406.6H158.469V421.448C158.469 424.051 157.786 426.035 156.421 427.4C155.056 428.765 153.178 429.448 150.789 429.448C148.4 429.448 146.522 428.765 145.157 427.4C143.792 426.035 143.109 424.051 143.109 421.448V406.6H145.797ZM180.591 429H177.903V421.512C177.903 420.957 177.775 420.531 177.519 420.232C177.263 419.933 176.815 419.784 176.175 419.784H169.199V429H166.511V406.6H174.511C175.663 406.6 176.665 406.771 177.519 407.112C178.372 407.432 179.076 407.869 179.631 408.424C180.207 408.979 180.633 409.629 180.911 410.376C181.209 411.101 181.359 411.869 181.359 412.68V413.64C181.359 414.472 181.124 415.304 180.655 416.136C180.207 416.968 179.503 417.608 178.543 418.056V418.44C179.183 418.547 179.684 418.803 180.047 419.208C180.409 419.613 180.591 420.189 180.591 420.936V429ZM169.199 417.288H174.191C175.705 417.288 176.825 416.968 177.551 416.328C178.297 415.667 178.671 414.707 178.671 413.448V412.872C178.671 411.741 178.297 410.835 177.551 410.152C176.825 409.448 175.705 409.096 174.191 409.096H169.199V417.288ZM201.176 423.432H191.576L189.944 429H187.064L193.848 406.6H198.904L205.688 429H202.808L201.176 423.432ZM196.184 407.752L192.312 420.936H200.44L196.568 407.752H196.184Z" fill="white"/>
    <rect x="32.5" y="381.5" width="192" height="71" rx="9.5" stroke="white"/>
    <rect x="40.5" y="219.5" width="175" height="59" rx="9.5" stroke="white"/>
    <path d="M77.4156 238.6V253.448C77.4156 255.261 77.8316 256.637 78.6636 257.576C79.517 258.493 80.765 258.952 82.4076 258.952C84.0503 258.952 85.2876 258.493 86.1196 257.576C86.973 256.637 87.3996 255.261 87.3996 253.448V238.6H90.0876V253.448C90.0876 256.051 89.405 258.035 88.0396 259.4C86.6743 260.765 84.797 261.448 82.4076 261.448C80.0183 261.448 78.141 260.765 76.7756 259.4C75.4103 258.035 74.7276 256.051 74.7276 253.448V238.6H77.4156ZM109.585 259.848H109.969V238.6H112.657V261H107.281L100.817 239.752H100.433V261H97.7454V238.6H103.121L109.585 259.848ZM120.891 238.6H135.099V241.096H129.339V258.504H135.099V261H120.891V258.504H126.651V241.096H120.891V238.6ZM142.917 238.6H158.661V241.096H152.133V261H149.445V241.096H142.917V238.6ZM166.799 238.6H180.367V241.096H169.487V248.52H180.175V251.016H169.487V258.504H180.559V261H166.799V238.6Z" fill="white"/>
    <rect x="32.5" y="213.5" width="192" height="71" rx="9.5" stroke="white"/>
    <rect x="40.5" y="51.5" width="175" height="59" rx="9.5" stroke="white"/>
    <path d="M71.1388 90.952C72.0561 90.952 72.8348 90.8027 73.4748 90.504C74.1361 90.184 74.6694 89.768 75.0748 89.256C75.5014 88.7227 75.8108 88.1253 76.0028 87.464C76.2161 86.7813 76.3228 86.0667 76.3228 85.32V84.936H79.0108V85.32C79.0108 86.4507 78.8401 87.5173 78.4988 88.52C78.1574 89.5013 77.6561 90.3653 76.9948 91.112C76.3334 91.8373 75.5121 92.4133 74.5308 92.84C73.5494 93.2453 72.4188 93.448 71.1388 93.448C68.6641 93.448 66.7334 92.6693 65.3468 91.112C63.9601 89.5547 63.2668 87.2827 63.2668 84.296V79.304C63.2668 76.4027 63.9601 74.152 65.3468 72.552C66.7334 70.952 68.6641 70.152 71.1388 70.152C72.4188 70.152 73.5494 70.3653 74.5308 70.792C75.5121 71.1973 76.3334 71.7733 76.9948 72.52C77.6561 73.2453 78.1574 74.1093 78.4988 75.112C78.8401 76.0933 79.0108 77.1493 79.0108 78.28V78.664H76.3228V78.28C76.3014 77.5547 76.1841 76.8507 75.9708 76.168C75.7788 75.4853 75.4694 74.888 75.0428 74.376C74.6374 73.8427 74.1148 73.4267 73.4748 73.128C72.8348 72.808 72.0561 72.648 71.1388 72.648C69.4108 72.648 68.1094 73.2773 67.2348 74.536C66.3814 75.7947 65.9548 77.448 65.9548 79.496V84.104C65.9548 86.3013 66.3814 87.9973 67.2348 89.192C68.1094 90.3653 69.4108 90.952 71.1388 90.952ZM98.6045 87.432H89.0045L87.3725 93H84.4925L91.2765 70.6H96.3325L103.117 93H100.237L98.6045 87.432ZM93.6125 71.752L89.7405 84.936H97.8685L93.9965 71.752H93.6125ZM120.982 91.848H121.366V70.6H124.054V93H118.678L112.214 71.752H111.83V93H109.142V70.6H114.518L120.982 91.848ZM130.464 70.6H133.344L139.2 91.848H139.584L145.44 70.6H148.32L141.984 93H136.8L130.464 70.6ZM166.986 87.432H157.386L155.754 93H152.874L159.658 70.6H164.714L171.498 93H168.618L166.986 87.432ZM161.994 71.752L158.122 84.936H166.25L162.378 71.752H161.994ZM190.26 77.064C190.26 76.3387 190.11 75.6987 189.812 75.144C189.534 74.5893 189.15 74.1307 188.66 73.768C188.169 73.4053 187.604 73.128 186.964 72.936C186.324 72.744 185.652 72.648 184.948 72.648C184.329 72.648 183.742 72.7333 183.188 72.904C182.633 73.0533 182.132 73.2773 181.684 73.576C181.257 73.8747 180.916 74.248 180.66 74.696C180.404 75.1227 180.276 75.624 180.276 76.2V76.392C180.276 77.0107 180.404 77.544 180.66 77.992C180.916 78.4187 181.289 78.792 181.78 79.112C182.292 79.4107 182.921 79.6667 183.668 79.88C184.414 80.072 185.289 80.2427 186.292 80.392C188.638 80.7547 190.366 81.448 191.476 82.472C192.585 83.4747 193.14 84.8293 193.14 86.536V86.92C193.14 87.88 192.969 88.7653 192.628 89.576C192.308 90.3653 191.817 91.048 191.156 91.624C190.516 92.2 189.716 92.648 188.756 92.968C187.796 93.288 186.686 93.448 185.428 93.448C183.998 93.448 182.729 93.2453 181.62 92.84C180.532 92.4133 179.614 91.8373 178.868 91.112C178.142 90.3653 177.588 89.5013 177.204 88.52C176.82 87.5173 176.628 86.4293 176.628 85.256V84.296H179.316V85.064C179.316 87.0267 179.849 88.4987 180.916 89.48C182.004 90.4613 183.508 90.952 185.428 90.952C187.092 90.952 188.34 90.5893 189.172 89.864C190.025 89.1173 190.452 88.136 190.452 86.92V86.728C190.452 85.5547 190.014 84.6587 189.14 84.04C188.286 83.4213 186.889 82.9733 184.948 82.696C183.817 82.5467 182.793 82.3227 181.876 82.024C180.98 81.704 180.212 81.2987 179.572 80.808C178.932 80.296 178.441 79.688 178.1 78.984C177.758 78.28 177.588 77.448 177.588 76.488V76.104C177.588 75.2293 177.769 74.4293 178.132 73.704C178.494 72.9787 178.996 72.3493 179.636 71.816C180.297 71.2827 181.076 70.8773 181.972 70.6C182.889 70.3013 183.892 70.152 184.98 70.152C186.238 70.152 187.358 70.3333 188.34 70.696C189.342 71.0587 190.185 71.5493 190.868 72.168C191.55 72.7653 192.062 73.48 192.404 74.312C192.766 75.1227 192.948 75.976 192.948 76.872V78.216H190.26V77.064Z" fill="white"/>
    <rect x="32.5" y="45.5" width="192" height="71" rx="9.5" stroke="white"/>
    <path d="M400 248.99L502 190L502 307.969L400 248.99Z" fill="white"/>
    <path d="M238.932 414.328C237.827 414.328 236.932 415.224 236.932 416.328C236.932 417.433 237.827 418.328 238.932 418.328V414.328ZM386.438 251.304C387.219 250.523 387.219 249.257 386.438 248.476L373.71 235.748C372.929 234.967 371.663 234.967 370.882 235.748C370.1 236.529 370.1 237.795 370.882 238.576L382.195 249.89L370.882 261.204C370.1 261.985 370.1 263.251 370.882 264.032C371.663 264.813 372.929 264.813 373.71 264.032L386.438 251.304ZM246.03 418.328C247.134 418.328 248.03 417.433 248.03 416.328C248.03 415.224 247.134 414.328 246.03 414.328V418.328ZM254.902 414.328C253.798 414.328 252.902 415.224 252.902 416.328C252.902 417.433 253.798 418.328 254.902 418.328V414.328ZM274.087 415.354C275.064 414.84 275.44 413.63 274.926 412.653C274.412 411.675 273.202 411.299 272.225 411.813L274.087 415.354ZM281.485 402.553C280.971 403.531 281.347 404.74 282.324 405.254C283.302 405.768 284.511 405.392 285.025 404.415L281.485 402.553ZM288 385.04C288 383.935 287.105 383.04 286 383.04C284.895 383.04 284 383.935 284 385.04H288ZM284 375.929C284 377.034 284.895 377.929 286 377.929C287.105 377.929 288 377.034 288 375.929H284ZM288 361.352C288 360.248 287.105 359.352 286 359.352C284.895 359.352 284 360.248 284 361.352H288ZM284 352.241C284 353.346 284.895 354.241 286 354.241C287.105 354.241 288 353.346 288 352.241H284ZM288 337.664C288 336.56 287.105 335.664 286 335.664C284.895 335.664 284 336.56 284 337.664H288ZM284 328.554C284 329.658 284.895 330.554 286 330.554C287.105 330.554 288 329.658 288 328.554H284ZM288 313.977C288 312.872 287.105 311.977 286 311.977C284.895 311.977 284 312.872 284 313.977H288ZM284 304.866C284 305.971 284.895 306.866 286 306.866C287.105 306.866 288 305.971 288 304.866H284ZM288 290.289C288 289.185 287.105 288.289 286 288.289C284.895 288.289 284 289.185 284 290.289H288ZM284 281.178C284 282.283 284.895 283.178 286 283.178C287.105 283.178 288 282.283 288 281.178H284ZM290.515 263.665C291.029 262.688 290.653 261.478 289.676 260.964C288.698 260.45 287.489 260.826 286.975 261.803L290.515 263.665ZM297.913 250.865C296.936 251.379 296.56 252.588 297.074 253.566C297.588 254.543 298.798 254.919 299.775 254.405L297.913 250.865ZM317.695 251.89C318.799 251.89 319.695 250.995 319.695 249.89C319.695 248.785 318.799 247.89 317.695 247.89V251.89ZM327.313 247.89C326.209 247.89 325.313 248.785 325.313 249.89C325.313 250.995 326.209 251.89 327.313 251.89V247.89ZM342.703 251.89C343.807 251.89 344.703 250.995 344.703 249.89C344.703 248.785 343.807 247.89 342.703 247.89V251.89ZM352.321 247.89C351.216 247.89 350.321 248.785 350.321 249.89C350.321 250.995 351.216 251.89 352.321 251.89V247.89ZM367.711 251.89C368.815 251.89 369.711 250.995 369.711 249.89C369.711 248.785 368.815 247.89 367.711 247.89V251.89ZM377.329 247.89C376.224 247.89 375.329 248.785 375.329 249.89C375.329 250.995 376.224 251.89 377.329 251.89V247.89ZM238.932 418.328H246.03V414.328H238.932V418.328ZM254.902 418.328H262V414.328H254.902V418.328ZM262 418.328C266.359 418.328 270.473 417.254 274.087 415.354L272.225 411.813C269.172 413.419 265.695 414.328 262 414.328V418.328ZM285.025 404.415C286.926 400.802 288 396.688 288 392.328H284C284 396.023 283.091 399.5 281.485 402.553L285.025 404.415ZM288 392.328V385.04H284V392.328H288ZM288 375.929V361.352H284V375.929H288ZM288 352.241V337.664H284V352.241H288ZM288 328.554V313.977H284V328.554H288ZM288 304.866V290.289H284V304.866H288ZM288 281.178V273.89H284V281.178H288ZM288 273.89C288 270.195 288.909 266.718 290.515 263.665L286.975 261.803C285.074 265.417 284 269.531 284 273.89H288ZM299.775 254.405C302.828 252.799 306.305 251.89 310 251.89V247.89C305.641 247.89 301.527 248.964 297.913 250.865L299.775 254.405ZM310 251.89H317.695V247.89H310V251.89ZM327.313 251.89H342.703V247.89H327.313V251.89ZM352.321 251.89H367.711V247.89H352.321V251.89ZM377.329 251.89H385.024V247.89H377.329V251.89Z" fill="white"/>
    <path d="M240.083 76.5525C238.978 76.5525 238.083 77.448 238.083 78.5525C238.083 79.6571 238.978 80.5525 240.083 80.5525V76.5525ZM386.438 251.304C387.219 250.523 387.219 249.257 386.438 248.476L373.71 235.748C372.929 234.967 371.663 234.967 370.882 235.748C370.1 236.529 370.1 237.795 370.882 238.576L382.195 249.89L370.882 261.204C370.1 261.985 370.1 263.251 370.882 264.032C371.663 264.813 372.929 264.813 373.71 264.032L386.438 251.304ZM246.827 80.5525C247.931 80.5525 248.827 79.6571 248.827 78.5525C248.827 77.448 247.931 76.5525 246.827 76.5525V80.5525ZM255.256 76.5525C254.152 76.5525 253.256 77.448 253.256 78.5525C253.256 79.6571 254.152 80.5525 255.256 80.5525V76.5525ZM272.225 83.0674C273.202 83.5815 274.412 83.2058 274.926 82.2282C275.44 81.2506 275.064 80.0413 274.087 79.5271L272.225 83.0674ZM285.025 90.466C284.511 89.4884 283.302 89.1127 282.324 89.6268C281.347 90.141 280.971 91.3503 281.485 92.3279L285.025 90.466ZM284 110.143C284 111.247 284.895 112.143 286 112.143C287.105 112.143 288 111.247 288 110.143H284ZM288 119.63C288 118.525 287.105 117.63 286 117.63C284.895 117.63 284 118.525 284 119.63H288ZM284 134.81C284 135.915 284.895 136.81 286 136.81C287.105 136.81 288 135.915 288 134.81H284ZM288 144.298C288 143.193 287.105 142.298 286 142.298C284.895 142.298 284 143.193 284 144.298H288ZM284 159.478C284 160.582 284.895 161.478 286 161.478C287.105 161.478 288 160.582 288 159.478H284ZM288 168.965C288 167.86 287.105 166.965 286 166.965C284.895 166.965 284 167.86 284 168.965H288ZM284 184.145C284 185.25 284.895 186.145 286 186.145C287.105 186.145 288 185.25 288 184.145H284ZM288 193.632C288 192.528 287.105 191.632 286 191.632C284.895 191.632 284 192.528 284 193.632H288ZM284 208.812C284 209.917 284.895 210.812 286 210.812C287.105 210.812 288 209.917 288 208.812H284ZM288 218.3C288 217.195 287.105 216.3 286 216.3C284.895 216.3 284 217.195 284 218.3H288ZM286.975 237.977C287.489 238.954 288.698 239.33 289.676 238.816C290.653 238.302 291.029 237.092 290.515 236.115L286.975 237.977ZM299.775 245.375C298.798 244.861 297.588 245.237 297.074 246.214C296.56 247.192 296.936 248.401 297.913 248.915L299.775 245.375ZM317.695 251.89C318.799 251.89 319.695 250.995 319.695 249.89C319.695 248.785 318.799 247.89 317.695 247.89V251.89ZM327.313 247.89C326.209 247.89 325.313 248.785 325.313 249.89C325.313 250.995 326.209 251.89 327.313 251.89V247.89ZM342.703 251.89C343.807 251.89 344.703 250.995 344.703 249.89C344.703 248.785 343.807 247.89 342.703 247.89V251.89ZM352.321 247.89C351.216 247.89 350.321 248.785 350.321 249.89C350.321 250.995 351.216 251.89 352.321 251.89V247.89ZM367.711 251.89C368.815 251.89 369.711 250.995 369.711 249.89C369.711 248.785 368.815 247.89 367.711 247.89V251.89ZM377.329 247.89C376.224 247.89 375.329 248.785 375.329 249.89C375.329 250.995 376.224 251.89 377.329 251.89V247.89ZM240.083 80.5525H246.827V76.5525H240.083V80.5525ZM255.256 80.5525H262V76.5525H255.256V80.5525ZM262 80.5525C265.695 80.5525 269.172 81.4619 272.225 83.0674L274.087 79.5271C270.473 77.6269 266.359 76.5525 262 76.5525V80.5525ZM281.485 92.3279C283.091 95.3806 284 98.8574 284 102.553H288C288 98.1933 286.926 94.0791 285.025 90.466L281.485 92.3279ZM284 102.553V110.143H288V102.553H284ZM284 119.63V134.81H288V119.63H284ZM284 144.298V159.478H288V144.298H284ZM284 168.965V184.145H288V168.965H284ZM284 193.632V208.812H288V193.632H284ZM284 218.3V225.89H288V218.3H284ZM284 225.89C284 230.249 285.074 234.363 286.975 237.977L290.515 236.115C288.909 233.062 288 229.585 288 225.89H284ZM297.913 248.915C301.527 250.816 305.641 251.89 310 251.89V247.89C306.305 247.89 302.828 246.981 299.775 245.375L297.913 248.915ZM310 251.89H317.695V247.89H310V251.89ZM327.313 251.89H342.703V247.89H327.313V251.89ZM352.321 251.89H367.711V247.89H352.321V251.89ZM377.329 251.89H385.024V247.89H377.329V251.89Z" fill="white"/>
    <path d="M232.338 248.04C231.234 248.04 230.338 248.936 230.338 250.04C230.338 251.145 231.234 252.04 232.338 252.04V248.04ZM383.024 250.04C383.024 251.145 383.919 252.04 385.024 252.04C386.128 252.04 387.024 251.145 387.024 250.04H383.024ZM233.658 249.965C233.658 251.07 234.553 251.965 235.658 251.965C236.762 251.965 237.658 251.07 237.658 249.965H233.658ZM237.658 249.965C237.658 248.861 236.762 247.965 235.658 247.965C234.553 247.965 233.658 248.861 233.658 249.965H237.658ZM233.337 252.04C234.441 252.04 235.337 251.145 235.337 250.04C235.337 248.936 234.441 248.04 233.337 248.04V252.04ZM234.584 248.04C233.48 248.04 232.584 248.936 232.584 250.04C232.584 251.145 233.48 252.04 234.584 252.04V248.04ZM236.548 251.802C237.526 251.288 237.902 250.079 237.387 249.101C236.873 248.123 235.664 247.748 234.686 248.262L236.548 251.802ZM233.879 249.069C233.365 250.047 233.74 251.256 234.718 251.77C235.696 252.284 236.905 251.909 237.419 250.931L233.879 249.069ZM237.436 250.861C237.95 249.884 237.575 248.674 236.597 248.16C235.62 247.646 234.41 248.022 233.896 248.999L237.436 250.861ZM234.767 248.128C233.789 248.643 233.414 249.852 233.928 250.83C234.442 251.807 235.651 252.183 236.629 251.669L234.767 248.128ZM243.381 251.89C244.486 251.89 245.381 250.995 245.381 249.89C245.381 248.785 244.486 247.89 243.381 247.89V251.89ZM252.941 247.89C251.837 247.89 250.941 248.785 250.941 249.89C250.941 250.995 251.837 251.89 252.941 251.89V247.89ZM268.238 251.89C269.342 251.89 270.238 250.995 270.238 249.89C270.238 248.785 269.342 247.89 268.238 247.89V251.89ZM277.798 247.89C276.693 247.89 275.798 248.785 275.798 249.89C275.798 250.995 276.693 251.89 277.798 251.89V247.89ZM293.094 251.89C294.199 251.89 295.094 250.995 295.094 249.89C295.094 248.785 294.199 247.89 293.094 247.89V251.89ZM302.655 247.89C301.55 247.89 300.655 248.785 300.655 249.89C300.655 250.995 301.55 251.89 302.655 251.89V247.89ZM317.951 251.89C319.056 251.89 319.951 250.995 319.951 249.89C319.951 248.785 319.056 247.89 317.951 247.89V251.89ZM327.512 247.89C326.407 247.89 325.512 248.785 325.512 249.89C325.512 250.995 326.407 251.89 327.512 251.89V247.89ZM342.808 251.89C343.913 251.89 344.808 250.995 344.808 249.89C344.808 248.785 343.913 247.89 342.808 247.89V251.89ZM352.368 247.89C351.264 247.89 350.368 248.785 350.368 249.89C350.368 250.995 351.264 251.89 352.368 251.89V247.89ZM367.665 251.89C368.769 251.89 369.665 250.995 369.665 249.89C369.665 248.785 368.769 247.89 367.665 247.89V251.89ZM377.225 247.89C376.12 247.89 375.225 248.785 375.225 249.89C375.225 250.995 376.12 251.89 377.225 251.89V247.89ZM384.012 251.677C384.99 252.191 386.199 251.816 386.713 250.838C387.227 249.861 386.852 248.651 385.874 248.137L384.012 251.677ZM386.777 249.04C386.262 248.062 385.053 247.686 384.076 248.2C383.098 248.714 382.722 249.924 383.236 250.901L386.777 249.04ZM232.338 252.04H233.337V248.04H232.338V252.04ZM234.584 252.04H235.582V248.04H234.584V252.04ZM235.582 252.04C235.927 252.04 236.258 251.955 236.548 251.802L234.686 248.262C234.956 248.12 235.263 248.04 235.582 248.04V252.04ZM237.419 250.931C237.572 250.64 237.658 250.31 237.658 249.965H233.658C233.658 249.646 233.737 249.339 233.879 249.069L237.419 250.931ZM237.658 249.965C237.658 250.285 237.578 250.591 237.436 250.861L233.896 248.999C233.743 249.29 233.658 249.621 233.658 249.965H237.658ZM236.629 251.669C236.359 251.811 236.052 251.89 235.733 251.89V247.89C235.388 247.89 235.058 247.976 234.767 248.128L236.629 251.669ZM235.733 251.89H243.381V247.89H235.733V251.89ZM252.941 251.89H268.238V247.89H252.941V251.89ZM277.798 251.89H293.094V247.89H277.798V251.89ZM302.655 251.89H317.951V247.89H302.655V251.89ZM327.512 251.89H342.808V247.89H327.512V251.89ZM352.368 251.89H367.665V247.89H352.368V251.89ZM377.225 251.89H384.873V247.89H377.225V251.89ZM384.873 251.89C384.566 251.89 384.271 251.814 384.012 251.677L385.874 248.137C385.573 247.979 385.231 247.89 384.873 247.89V251.89ZM383.236 250.901C383.1 250.642 383.024 250.347 383.024 250.04H387.024C387.024 249.683 386.935 249.341 386.777 249.04L383.236 250.901Z" fill="white"/>
    <style>
        path {
            fill: #000;
        }
        rect {
            fill: none;
            stroke: #000;
        }
        @media (prefers-color-scheme: dark) {
            path {
                fill: #fff;
            }
            rect {
                stroke: #fff;
            }
        }
    </style>
</svg>
